<svg xmlns="http://www.w3.org/2000/svg" viewBox="0 0 512 512" role="img" aria-labelledby="title desc">
  <title id="title">MatchSeer app icon</title>
  <desc id="desc">A deep navy rounded app icon with the MatchSeer M, seer eye, and signal arcs.</desc>
  <defs>
    <linearGradient id="badge" x1="72" x2="440" y1="40" y2="472" gradientUnits="userSpaceOnUse">
      <stop stop-color="#0B132B"/>
      <stop offset="1" stop-color="#071225"/>
    </linearGradient>
    <linearGradient id="badgeEdge" x1="88" x2="424" y1="72" y2="450" gradientUnits="userSpaceOnUse">
      <stop stop-color="#00BFA5"/>
      <stop offset="0.45" stop-color="#1E3A8A"/>
      <stop offset="1" stop-color="#FF6A00"/>
    </linearGradient>
    <linearGradient id="signal" x1="128" x2="384" y1="328" y2="440" gradientUnits="userSpaceOnUse">
      <stop stop-color="#1E3A8A"/>
      <stop offset="1" stop-color="#1155D9"/>
    </linearGradient>
    <linearGradient id="eye" x1="214" x2="298" y1="218" y2="302" gradientUnits="userSpaceOnUse">
      <stop stop-color="#FF7A1A"/>
      <stop offset="1" stop-color="#FF4C00"/>
    </linearGradient>
    <filter id="softShadow" x="-20%" y="-20%" width="140%" height="140%" color-interpolation-filters="sRGB">
      <feDropShadow dx="0" dy="18" stdDeviation="24" flood-color="#000" flood-opacity=".3"/>
    </filter>
  </defs>
  <rect width="512" height="512" rx="104" fill="url(#badge)"/>
  <rect x="24" y="24" width="464" height="464" rx="88" fill="none" stroke="url(#badgeEdge)" stroke-opacity=".22" stroke-width="6"/>
  <g filter="url(#softShadow)">
    <path
      fill="#F8FAFC"
      d="M118 118c0-14 16-22 27-14l111 85v55l-56 43v58c0 15-18 24-30 14l-40-31c-8-6-12-15-12-25V118Z"
    />
    <path
      fill="#F8FAFC"
      d="M394 118c0-14-16-22-27-14l-111 85v55l56 43v58c0 15 18 24 30 14l40-31c8-6 12-15 12-25V118Z"
    />
    <path
      fill="#0B132B"
      d="M202 276c0-8 4-15 10-20l44-33 44 33c6 5 10 12 10 20v43c0 24-20 44-44 44h-20c-24 0-44-20-44-44v-43Z"
    />
    <circle cx="256" cy="297" r="31" fill="url(#eye)"/>
    <path
      fill="none"
      stroke="url(#signal)"
      stroke-linecap="round"
      stroke-width="24"
      d="M199 369c32 27 82 27 114 0"
    />
    <path
      fill="none"
      stroke="url(#signal)"
      stroke-linecap="round"
      stroke-width="24"
      d="M163 421c55 43 131 43 186 0"
    />
  </g>
</svg>
