<svg xmlns="http://www.w3.org/2000/svg" viewBox="0 0 320 320" role="img" aria-labelledby="title desc">
  <title id="title">MatchSeer primary mark</title>
  <desc id="desc">A simplified MatchSeer M mark with a seer eye and match signal arcs.</desc>
  <defs>
    <linearGradient id="navy" x1="52" x2="268" y1="42" y2="220" gradientUnits="userSpaceOnUse">
      <stop stop-color="#071225"/>
      <stop offset="1" stop-color="#0B132B"/>
    </linearGradient>
    <linearGradient id="blue" x1="86" x2="234" y1="212" y2="276" gradientUnits="userSpaceOnUse">
      <stop stop-color="#1E3A8A"/>
      <stop offset="1" stop-color="#1155D9"/>
    </linearGradient>
    <linearGradient id="orange" x1="132" x2="188" y1="144" y2="200" gradientUnits="userSpaceOnUse">
      <stop stop-color="#FF7A1A"/>
      <stop offset="1" stop-color="#FF4C00"/>
    </linearGradient>
  </defs>
  <path
    fill="url(#navy)"
    d="M62 52c0-10 12-16 20-10l78 60v40l-39 30v41c0 11-13 17-22 10l-29-22c-5-4-8-10-8-16V52Z"
  />
  <path
    fill="url(#navy)"
    d="M258 52c0-10-12-16-20-10l-78 60v40l39 30v41c0 11 13 17 22 10l29-22c5-4 8-10 8-16V52Z"
  />
  <path
    fill="#fff"
    d="M118 162c0-5 2-9 6-12l36-27 36 27c4 3 6 7 6 12v35c0 16-13 29-29 29h-26c-16 0-29-13-29-29v-35Z"
  />
  <circle cx="160" cy="176" r="27" fill="url(#orange)"/>
  <path
    fill="none"
    stroke="url(#blue)"
    stroke-linecap="round"
    stroke-width="18"
    d="M121 232c22 18 56 18 78 0"
  />
  <path
    fill="none"
    stroke="url(#blue)"
    stroke-linecap="round"
    stroke-width="18"
    d="M95 268c37 31 93 31 130 0"
  />
</svg>
